 <svg version="1.0" xmlns="http://www.w3.org/2000/svg"  width="1350.000000pt" height="900.000000pt" viewBox="0 0 1350.000000 900.000000"  preserveAspectRatio="xMidYMid meet">  <g transform="translate(0.000000,900.000000) scale(0.100000,-0.100000)" fill="#f5f5f5" stroke="none"> <path d="M8470 5785 c-14 -8 -48 -14 -76 -15 -36 0 -56 -5 -67 -18 -10 -10 -17 -21 -17 -24 0 -9 -57 -68 -67 -68 -4 0 -17 -19 -27 -42 -10 -22 -27 -43 -38 -46 -10 -2 -25 -20 -33 -39 -14 -34 -16 -35 -55 -28 -26 4 -46 3 -55 -5 -8 -7 -36 -11 -62 -10 -74 4 -82 2 -108 -26 -18 -19 -31 -25 -47 -21 -12 4 -28 1 -35 -4 -14 -12 -102 24 -116 48 -4 7 -18 13 -31 13 -12 0 -26 3 -30 7 -4 4 -22 8 -39 8 -18 1 -54 5 -80 9 -44 8 -49 7 -54 -13 -3 -11 -8 -21 -12 -22 -3 0 -23 -1 -43 -3 -20 -2 -48 -10 -62 -19 -55 -36 -87 -17 -159 95 -20 31 -39 62 -42 70 -10 24 -71 58 -105 58 -46 0 -94 -35 -119 -87 -14 -28 -27 -43 -40 -43 -29 0 -45 -25 -31 -49 8 -17 7 -24 -10 -41 l-20 -20 -71 37 c-68 35 -75 37 -152 34 -74 -3 -84 -5 -111 -32 -16 -16 -36 -29 -44 -29 -12 0 -47 -16 -92 -41 -8 -5 -21 -12 -28 -15 -23 -12 -57 6 -81 41 -13 19 -30 35 -37 35 -8 0 -14 5 -14 10 0 6 -22 10 -50 10 -36 0 -50 4 -50 14 0 19 -46 29 -72 15 -11 -6 -36 -9 -55 -6 -24 4 -36 2 -40 -9 -3 -7 -16 -14 -29 -14 -12 0 -27 -7 -32 -16 -7 -12 -17 -15 -36 -10 -21 5 -26 12 -26 37 0 16 9 47 20 69 23 45 27 100 7 100 -7 0 -23 14 -36 31 -12 16 -36 38 -52 48 -52 32 -130 2 -184 -71 -16 -21 -37 -38 -47 -38 -15 0 -18 -9 -18 -53 0 -40 -5 -57 -20 -70 -11 -9 -25 -17 -30 -17 -6 0 -13 -7 -16 -15 -11 -28 -23 -15 -29 33 -3 26 -10 55 -16 64 -5 10 -9 26 -9 36 0 25 -78 111 -115 126 -30 13 -108 8 -146 -8 -29 -13 -43 -54 -42 -129 2 -101 6 -130 21 -135 15 -5 16 -56 0 -81 -15 -24 3 -71 27 -71 15 0 18 -24 20 -132 0 -20 6 -43 13 -49 6 -7 12 -20 12 -28 0 -9 7 -25 15 -35 8 -11 15 -36 15 -56 0 -20 4 -40 9 -46 5 -5 14 -36 20 -69 6 -32 16 -64 21 -69 6 -6 10 -22 10 -38 0 -42 20 -78 75 -134 64 -66 107 -75 179 -39 66 34 116 93 116 138 0 26 6 39 25 51 14 9 25 25 25 36 0 30 29 24 41 -7 34 -86 58 -119 126 -174 72 -57 72 -57 158 -64 57 -5 95 -4 111 3 13 7 31 9 39 6 9 -4 26 6 44 25 16 17 35 31 43 31 8 0 24 14 36 30 26 35 51 38 77 10 11 -12 31 -20 51 -20 27 0 37 -6 48 -29 27 -51 54 -61 169 -61 89 0 108 3 130 20 14 11 32 20 40 20 8 0 17 9 20 21 4 15 11 19 25 14 16 -5 19 -2 15 13 -5 22 12 39 22 22 3 -5 17 -7 29 -4 18 4 33 -3 62 -33 47 -47 77 -63 117 -63 17 0 45 -5 62 -11 28 -11 33 -9 63 20 28 28 36 31 69 26 31 -5 35 -4 20 5 -14 9 -16 15 -6 26 15 19 27 18 31 -3 2 -12 14 -18 42 -19 26 0 44 -8 55 -21 31 -40 219 -48 277 -12 19 11 37 26 41 33 5 7 27 25 51 40 l42 27 36 -35 c20 -20 45 -38 55 -41 11 -4 19 -10 19 -15 0 -19 56 -17 99 4 25 11 47 24 49 28 2 3 17 27 33 51 26 40 32 61 38 135 2 20 31 14 31 -7 0 -10 13 -35 30 -56 16 -20 32 -45 35 -55 3 -10 16 -21 30 -24 13 -3 42 -24 65 -46 24 -23 58 -44 83 -51 66 -18 184 -20 215 -3 15 8 33 14 40 14 6 0 12 5 12 10 0 6 11 10 25 10 18 0 28 7 35 25 5 14 16 25 23 25 7 0 23 11 35 25 26 30 37 31 59 5 10 -11 23 -20 30 -20 7 0 13 -7 13 -16 0 -11 6 -14 21 -9 17 6 29 -1 56 -31 29 -33 41 -39 86 -44 73 -7 197 7 217 25 9 8 21 15 26 15 5 0 20 10 34 23 14 12 38 28 54 35 28 13 31 12 60 -22 66 -74 143 -94 249 -61 26 8 54 12 62 8 9 -3 21 0 29 6 10 9 15 8 20 -4 3 -10 19 -15 45 -15 31 0 46 7 69 30 33 33 72 39 92 15 7 -8 23 -15 36 -15 13 0 24 -4 24 -9 0 -22 42 -23 64 -2 12 12 26 21 30 21 4 0 22 11 41 26 27 20 35 34 40 74 7 54 28 81 47 62 8 -8 15 -9 25 -1 10 9 14 7 19 -7 19 -59 30 -78 65 -108 22 -18 39 -37 39 -43 0 -23 110 -53 194 -53 74 0 86 3 112 25 16 14 40 24 54 24 14 -1 30 0 35 1 6 2 30 -2 54 -9 23 -7 50 -10 57 -7 8 3 23 0 33 -6 24 -15 71 4 120 46 27 24 45 31 81 33 43 1 49 -2 83 -41 40 -48 81 -57 123 -30 14 10 32 13 44 9 19 -6 21 -4 15 14 -5 16 -1 23 18 30 l24 10 4 238 c4 303 4 320 -8 335 -6 7 -13 25 -17 39 -3 15 -22 50 -41 79 -19 29 -35 56 -35 61 0 5 -11 9 -25 9 -15 0 -25 6 -25 14 0 20 -17 29 -75 38 -27 5 -58 10 -68 11 -23 4 -68 77 -61 99 6 21 -39 91 -74 114 -58 38 -134 20 -171 -40 -12 -19 -32 -37 -45 -40 -19 -5 -23 -12 -24 -48 -3 -129 -19 -156 -71 -112 -25 20 -34 24 -45 15 -11 -9 -16 -9 -21 0 -5 7 -21 9 -49 4 -22 -3 -60 -8 -82 -9 -23 -2 -63 -15 -89 -29 -26 -15 -51 -27 -56 -27 -5 0 -24 14 -44 31 -33 30 -38 31 -77 21 -24 -6 -48 -7 -57 -2 -10 5 -26 3 -44 -7 -20 -10 -50 -14 -93 -11 -59 3 -65 1 -96 -28 -44 -42 -100 -71 -82 -43 7 12 -42 58 -62 59 -6 0 -17 7 -24 15 -7 8 -21 15 -32 15 -10 0 -21 7 -25 16 -6 16 -7 16 -18 1 -11 -15 -16 -15 -54 4 -42 20 -61 19 -61 -6 0 -8 7 -11 20 -8 11 3 20 1 20 -5 0 -7 -25 -9 -69 -7 -59 3 -73 0 -93 -17 -13 -11 -23 -27 -23 -36 0 -10 -7 -16 -16 -14 -9 1 -24 -7 -34 -18 -26 -28 -62 -25 -95 9 -16 16 -60 43 -97 61 -62 28 -75 31 -138 27 -85 -6 -120 -15 -163 -39 -22 -12 -42 -16 -60 -12 -46 11 -50 19 -67 109 -1 6 -3 19 -3 30 -4 45 -139 155 -190 155 -10 0 -27 9 -37 20 -22 24 -78 26 -115 5z m-3254 -91 c18 -5 23 -16 28 -65 4 -32 11 -61 16 -64 6 -4 10 -24 10 -46 0 -22 7 -56 15 -76 8 -19 15 -49 15 -65 0 -16 7 -45 15 -65 8 -19 15 -52 15 -72 0 -20 6 -45 14 -56 8 -11 16 -43 19 -70 6 -60 28 -204 34 -224 7 -25 22 2 37 69 40 175 46 207 46 231 0 15 7 43 15 62 8 20 15 52 15 71 0 18 7 47 15 62 8 16 15 43 15 60 0 17 7 48 15 67 8 20 15 51 15 69 0 18 7 51 14 73 14 40 14 40 71 43 32 2 62 -1 68 -7 6 -6 2 -33 -13 -78 -32 -99 -40 -127 -50 -180 -11 -58 -27 -122 -46 -183 -8 -25 -14 -56 -14 -70 -1 -14 -7 -36 -15 -50 -8 -14 -15 -43 -15 -65 0 -22 -7 -49 -15 -59 -8 -11 -15 -36 -15 -56 0 -20 -5 -41 -10 -46 -10 -10 -18 -46 -38 -159 l-7 -40 -77 -3 -78 -3 0 44 c0 24 -7 52 -15 63 -8 10 -15 35 -15 54 0 19 -7 46 -15 60 -8 14 -14 36 -15 50 0 14 -6 45 -14 70 -14 43 -21 71 -52 205 -8 33 -21 87 -30 120 -8 33 -19 81 -24 107 -5 26 -13 55 -18 65 -5 10 -12 35 -15 57 -3 21 -14 47 -23 57 -28 31 -11 49 48 49 29 0 63 -3 74 -6z m3414 -19 c8 -6 22 -15 31 -18 9 -3 32 -25 52 -49 29 -35 38 -58 47 -113 13 -79 8 -87 -55 -80 -22 2 -48 4 -57 4 -15 1 -18 10 -18 55 0 51 -3 57 -37 85 -29 24 -47 31 -81 31 -88 0 -121 -36 -122 -134 0 -64 3 -72 34 -110 30 -36 64 -59 116 -80 15 -6 25 -11 65 -34 11 -7 29 -16 40 -21 33 -15 97 -88 113 -128 54 -137 0 -299 -120 -364 -62 -32 -194 -33 -258 -2 -81 40 -129 119 -137 226 l-5 57 61 0 60 0 6 -37 c7 -48 25 -104 37 -120 15 -19 87 -53 111 -53 41 1 101 44 124 91 26 50 27 68 12 122 -11 41 -61 104 -93 118 -12 5 -28 13 -36 18 -8 5 -44 23 -80 41 -79 39 -123 79 -153 140 -29 60 -32 226 -4 254 9 10 17 23 17 30 0 7 19 26 43 42 23 16 44 32 47 36 15 20 214 15 240 -7z m2416 17 c11 -7 4 -184 -11 -284 -9 -56 2 -62 43 -20 26 26 70 48 119 59 31 7 107 -24 135 -56 53 -58 57 -83 60 -399 l3 -292 -62 0 -63 0 0 289 c0 288 0 290 -23 317 -19 22 -31 26 -76 27 -48 1 -57 -2 -82 -30 -38 -43 -41 -77 -37 -361 l3 -242 -70 0 -70 0 2 493 c1 270 2 495 2 500 1 9 113 9 127 -1z m-3978 -171 l3 -104 57 6 c70 8 86 -1 88 -48 1 -49 -15 -59 -86 -51 l-60 7 0 -254 0 -255 28 -11 c15 -6 45 -10 67 -9 l40 3 0 -50 0 -50 -91 -3 c-91 -3 -91 -3 -127 31 l-37 33 0 283 0 283 -44 -6 -44 -7 -4 43 c-7 64 -3 70 49 62 l45 -7 -3 94 c-2 52 -1 99 3 104 3 6 30 10 60 10 l53 -1 3 -103z m-993 -90 c54 -21 125 -83 125 -110 0 -9 6 -25 14 -36 15 -23 27 -154 19 -215 l-6 -41 -176 2 -176 1 0 -59 c0 -66 14 -102 59 -150 25 -27 37 -33 72 -33 35 0 47 5 73 35 17 20 31 47 31 60 0 30 4 32 68 41 l52 7 0 -39 c0 -55 -50 -137 -103 -171 -37 -24 -52 -27 -127 -27 -66 0 -92 4 -115 19 -46 29 -83 70 -98 110 -2 6 -10 26 -18 45 -21 55 -25 333 -5 375 9 18 16 42 16 53 0 28 88 116 135 134 55 22 101 21 160 -1z m590 -4 c74 -28 135 -107 138 -178 l2 -34 -62 -3 c-61 -3 -69 1 -64 31 3 20 -34 79 -59 92 -42 22 -104 2 -131 -42 -21 -33 -22 -48 -22 -223 0 -200 4 -216 58 -262 51 -44 155 4 155 71 0 34 18 48 70 52 53 5 63 -6 56 -57 -8 -64 -45 -117 -111 -159 -24 -15 -48 -19 -115 -19 -93 0 -121 11 -170 68 -63 74 -72 110 -73 301 -1 134 7 193 31 245 23 49 85 107 121 115 17 4 34 11 37 17 8 13 88 5 139 -15z m935 2 c60 -23 89 -48 124 -102 38 -60 49 -117 49 -257 -1 -125 -12 -217 -29 -231 -8 -6 -14 -17 -14 -24 0 -16 -60 -85 -74 -85 -5 0 -18 -8 -28 -17 -15 -13 -38 -17 -101 -17 -71 0 -87 4 -123 27 -42 26 -72 61 -108 126 -17 32 -19 56 -19 221 0 171 1 188 21 225 28 51 99 125 121 125 9 1 27 7 41 15 29 17 87 14 140 -6z m605 1 c3 -10 1 -28 -4 -39 -6 -11 -11 -30 -11 -43 0 -35 -18 -48 -65 -48 -32 0 -47 -6 -67 -27 -46 -50 -52 -88 -44 -313 4 -113 8 -216 9 -230 2 -24 0 -25 -68 -28 l-70 -3 0 366 0 366 55 -3 c53 -3 55 -4 55 -32 0 -39 19 -44 47 -12 50 58 150 86 163 46z m990 -1 c101 -35 155 -142 155 -308 l0 -91 -187 -2 c-159 -3 -188 -5 -185 -18 2 -8 6 -37 9 -65 11 -96 61 -155 131 -155 34 0 45 6 71 37 17 20 33 49 36 65 8 36 12 38 71 30 44 -7 49 -10 48 -32 -3 -64 -44 -126 -109 -168 -35 -23 -51 -26 -127 -26 -68 0 -91 3 -106 17 -10 9 -22 17 -26 17 -13 0 -76 75 -76 90 0 8 -7 29 -16 45 -25 44 -25 366 -1 410 9 17 17 35 17 41 0 24 92 103 126 110 19 3 37 11 40 16 8 12 75 5 129 -13z m570 1 c54 -28 81 -53 104 -98 18 -35 20 -63 23 -335 l3 -297 -58 0 -59 0 7 40 c8 47 -4 52 -38 17 -92 -95 -220 -83 -292 28 -26 41 -28 194 -2 223 9 10 17 23 17 28 0 11 54 54 66 54 4 0 15 6 23 13 14 12 127 40 196 50 18 2 20 8 16 62 -4 67 -24 102 -72 122 -25 10 -35 10 -58 -1 -37 -20 -47 -33 -60 -83 l-12 -43 -59 0 c-67 0 -69 4 -49 69 26 80 74 140 114 141 11 0 31 7 45 14 37 21 100 19 145 -4z m572 -41 c-3 -34 -10 -66 -15 -71 -6 -6 -32 -12 -59 -14 -40 -2 -52 -8 -75 -36 -36 -44 -41 -90 -37 -352 l4 -217 -70 3 c-64 3 -70 5 -66 23 9 54 12 576 3 625 -13 70 -4 82 57 78 41 -3 46 -6 49 -28 6 -52 11 -55 40 -21 35 41 87 68 136 70 l39 1 -6 -61z m354 45 c52 -17 129 -84 129 -113 0 -9 7 -29 15 -45 30 -57 23 -66 -54 -66 -76 0 -81 4 -81 66 0 36 -22 58 -70 68 -28 6 -89 -21 -100 -44 -4 -8 -13 -26 -21 -40 -22 -39 -26 -319 -5 -361 9 -18 16 -38 16 -45 0 -25 60 -64 98 -64 53 1 81 29 112 113 9 26 13 28 62 25 45 -3 53 -6 56 -24 5 -32 -46 -131 -82 -159 -17 -14 -37 -31 -45 -37 -9 -7 -49 -12 -100 -12 -77 -1 -90 2 -129 27 -47 31 -77 74 -104 152 -25 73 -25 307 1 389 19 63 90 156 119 156 9 0 28 7 42 14 34 19 82 19 141 0z m-2128 -8 c6 -16 -2 -28 -14 -20 -12 7 -11 34 0 34 5 0 11 -6 14 -14z m251 -42 c3 -9 -3 -28 -14 -44 -11 -15 -20 -38 -20 -49 0 -31 -15 -26 -38 13 l-20 34 40 13 c30 10 38 17 35 31 -6 22 9 24 17 2z m-607 -156 c18 -7 33 -18 33 -26 0 -7 8 -12 19 -10 18 3 37 -16 95 -96 13 -18 22 -23 27 -15 8 14 39 5 39 -11 0 -6 -12 -16 -27 -23 -21 -9 -27 -9 -31 1 -2 6 -10 12 -17 12 -7 0 -15 7 -19 15 -10 27 -52 7 -116 -55 -33 -31 -65 -70 -71 -86 l-13 -29 -7 50 c-4 28 -8 80 -8 117 -1 58 2 70 19 80 11 7 20 23 20 35 0 25 9 53 18 53 3 0 21 -5 39 -12z m-1531 -77 c32 -21 50 -26 83 -23 34 3 40 7 30 18 -9 11 -7 14 14 14 24 0 26 -4 32 -66 9 -80 -2 -97 -67 -96 -62 0 -88 -6 -88 -23 0 -19 -19 -30 -32 -17 -6 6 -24 8 -39 5 -24 -5 -30 -1 -39 22 -15 40 -14 173 1 191 16 19 51 11 105 -25z m4007 18 c31 -12 70 -33 87 -48 29 -24 31 -30 25 -64 -9 -48 -59 -83 -128 -90 -70 -7 -77 4 -77 117 0 51 3 96 7 99 10 11 28 8 86 -14z m-2190 -148 c-3 -13 2 -23 16 -30 24 -13 29 -61 7 -61 -17 0 -66 56 -66 75 0 13 26 34 42 35 3 0 4 -9 1 -19z"/> <path d="M5960 5336 c-47 -17 -90 -97 -90 -167 l0 -50 123 3 122 3 -2 68 c-3 80 -25 119 -80 142 -20 8 -36 15 -37 14 0 0 -17 -6 -36 -13z"/> <path d="M7483 5334 c-18 -8 -45 -33 -60 -55 -27 -41 -28 -45 -28 -198 0 -172 12 -223 64 -268 36 -31 99 -31 127 0 57 61 59 69 59 252 0 171 0 172 -28 214 -16 25 -43 49 -62 57 -19 8 -36 14 -37 13 -2 0 -18 -7 -35 -15z m61 -200 c10 -27 7 -44 -9 -44 -18 0 -30 24 -21 45 7 20 22 19 30 -1z m3 -110 c7 -18 -14 -35 -34 -27 -7 3 -13 14 -13 24 0 24 38 26 47 3z"/> <path d="M9064 5330 c-32 -13 -74 -75 -75 -112 0 -18 -4 -42 -8 -53 -17 -41 -5 -45 125 -45 l124 0 0 61 c0 119 -74 186 -166 149z"/> <path d="M9645 5038 c-65 -34 -90 -72 -90 -139 0 -47 5 -62 24 -83 46 -49 126 -25 171 50 16 29 25 107 21 182 -1 19 -81 13 -126 -10z"/> <path d="M3725 5761 c-22 -4 -50 -12 -62 -19 -12 -7 -30 -12 -41 -12 -11 0 -25 -7 -32 -15 -7 -9 -20 -14 -29 -13 -9 2 -25 -10 -36 -27 -35 -51 -48 -132 -43 -255 4 -71 2 -113 -5 -117 -6 -3 -22 7 -37 24 -30 34 -80 52 -80 30 0 -15 41 -57 56 -57 6 0 24 -13 40 -30 16 -16 39 -30 52 -30 22 0 22 0 22 169 0 138 3 171 15 181 8 7 15 18 15 24 0 19 62 73 95 82 17 4 185 9 375 11 445 5 464 1 523 -109 l25 -47 0 -362 c0 -298 -2 -366 -14 -383 -8 -11 -14 -26 -14 -33 0 -17 -50 -67 -85 -83 -22 -11 -86 -16 -230 -20 l-200 -5 4 -45 c3 -25 5 -76 5 -115 l1 -69 205 3 c187 2 207 1 227 -16 12 -10 33 -27 47 -38 14 -11 25 -28 26 -37 0 -10 8 -26 19 -37 17 -17 18 -41 19 -389 0 -351 -1 -372 -19 -393 -10 -12 -19 -30 -19 -39 0 -27 -54 -79 -89 -86 -17 -4 -37 -16 -42 -27 -11 -19 -9 -20 21 -13 18 3 42 15 54 26 12 10 38 35 59 54 20 19 37 43 37 54 0 12 4 23 9 27 6 3 10 153 10 373 0 411 -4 438 -67 501 -55 56 -67 59 -262 65 -99 3 -185 8 -190 11 -13 8 -13 95 0 115 5 8 27 16 52 17 24 2 70 5 103 7 33 3 97 5 143 6 68 0 82 3 82 16 0 13 9 14 55 9 38 -5 55 -4 55 4 0 6 -13 11 -30 11 -38 0 -39 20 -1 41 16 9 31 29 35 45 4 16 13 36 20 44 19 23 39 96 30 111 -4 7 -8 159 -9 336 -1 230 -5 327 -13 335 -7 7 -12 20 -12 29 0 10 -9 24 -21 32 -11 8 -19 23 -17 33 2 12 -11 25 -47 43 -27 14 -57 33 -66 42 -15 15 -55 17 -350 17 -184 -1 -352 -4 -374 -7z"/> <path d="M2410 5753 c-123 -11 -177 -38 -235 -117 l-30 -40 0 -401 c0 -373 1 -402 19 -435 19 -34 83 -99 99 -100 5 0 15 -6 22 -14 14 -13 165 -30 225 -25 14 2 37 2 53 1 24 -2 27 -6 27 -37 0 -52 -25 -95 -55 -95 -13 0 -27 -5 -31 -11 -3 -6 -27 -10 -53 -9 -25 2 -75 2 -110 1 l-64 -1 -54 -56 c-29 -31 -53 -65 -53 -76 0 -10 -6 -21 -14 -24 -12 -5 -14 -66 -13 -402 2 -368 3 -400 21 -432 34 -64 118 -132 138 -112 12 12 -5 42 -23 42 -5 0 -23 12 -40 27 -59 53 -60 60 -61 481 0 271 3 387 11 395 6 6 11 16 11 22 0 17 32 52 76 81 38 26 39 26 196 22 l157 -5 3 111 c2 61 2 114 0 119 -2 4 -73 7 -158 7 -105 0 -161 4 -177 13 -45 25 -80 59 -98 95 -18 34 -19 65 -20 407 l-1 370 25 48 c28 51 63 86 87 87 9 0 24 6 35 14 16 10 94 13 379 14 198 1 364 -2 370 -7 6 -5 21 -12 33 -15 33 -10 93 -67 93 -87 0 -10 7 -25 16 -34 14 -13 15 -38 11 -175 l-5 -160 44 0 c51 0 58 8 49 60 -8 46 -20 52 -29 15 -14 -56 -23 -9 -19 97 8 164 -19 239 -102 294 -68 45 -87 47 -410 49 -170 1 -326 0 -345 -2z"/> <path d="M10072 5563 c-6 -3 -10 -9 -6 -14 7 -12 44 -12 44 0 0 11 -21 19 -38 14z"/> <path d="M3975 5250 c-11 -3 -103 -7 -205 -9 -102 -1 -193 -4 -202 -7 -24 -7 -23 -34 0 -34 10 0 22 -4 28 -10 6 -6 24 -5 49 1 53 12 325 13 337 1 6 -6 6 -12 -1 -16 -8 -5 -8 -13 1 -29 18 -34 23 -231 7 -279 -10 -31 -10 -44 -1 -59 7 -10 12 -44 12 -74 0 -31 4 -55 10 -55 25 0 30 62 28 307 -3 245 -4 256 -23 263 -11 4 -29 4 -40 0z"/> <path d="M3230 5140 c0 -5 7 -10 15 -10 8 0 15 5 15 10 0 6 -7 10 -15 10 -8 0 -15 -4 -15 -10z"/> <path d="M3740 5130 c-9 -6 -53 -7 -107 -3 -80 5 -93 4 -99 -11 -3 -9 -12 -16 -20 -16 -8 0 -14 -6 -14 -13 0 -16 -74 -87 -89 -87 -6 0 -18 -12 -27 -26 -15 -22 -15 -27 -3 -35 20 -13 39 -11 39 4 0 18 38 57 55 57 21 0 21 -113 0 -130 -8 -7 -15 -17 -15 -23 0 -5 -28 -37 -61 -69 -45 -43 -59 -62 -51 -70 8 -8 32 11 88 66 42 42 81 76 85 76 5 0 8 12 7 28 -1 15 -1 70 0 123 l2 95 111 1 c99 0 113 2 132 22 21 20 21 21 2 21 -11 0 -27 -5 -35 -10z"/> <path d="M3228 5085 c-2 -3 -3 -62 -1 -132 3 -110 1 -133 -15 -164 -28 -56 -57 -87 -88 -99 -23 -9 -25 -13 -14 -20 8 -6 23 -10 33 -10 23 0 97 78 97 103 0 10 7 26 16 35 11 11 15 27 11 54 -3 21 -3 56 0 78 5 33 8 38 20 29 20 -17 23 -10 25 62 l3 64 -41 2 c-23 2 -43 1 -46 -2z"/> <path d="M3740 5053 c-20 -8 -131 -120 -154 -156 -24 -36 -17 -42 29 -23 81 34 86 10 15 -63 -52 -53 -61 -71 -35 -71 15 0 235 210 235 224 0 4 12 18 27 32 14 13 24 26 22 29 -11 10 -49 -9 -54 -26 -5 -14 -12 -18 -25 -14 -15 5 -17 2 -13 -16 5 -19 3 -21 -15 -17 -15 4 -23 0 -27 -13 -7 -21 -35 -25 -53 -7 -18 18 -15 25 18 36 19 7 32 20 36 36 3 14 10 26 15 26 5 0 9 7 9 15 0 16 -5 17 -30 8z"/> <path d="M3902 4983 c-9 -24 -9 -289 1 -299 12 -12 18 0 32 70 10 46 11 75 5 92 -6 14 -10 52 -10 84 0 60 -14 86 -28 53z"/> <path d="M3570 4690 c0 -5 -40 -50 -90 -100 -49 -50 -95 -98 -102 -108 -7 -10 -42 -44 -78 -77 -90 -81 -97 -94 -77 -136 14 -31 17 -130 5 -204 -3 -19 3 -20 127 -21 72 0 139 -3 150 -5 19 -4 20 0 17 123 -4 122 -3 128 23 172 15 25 38 55 51 65 28 22 30 31 9 31 -8 0 -15 -5 -15 -10 0 -6 -11 -15 -25 -20 -43 -16 -68 -89 -67 -193 1 -48 -3 -99 -8 -112 -9 -23 -13 -25 -72 -21 -35 2 -77 4 -95 5 -53 2 -60 17 -57 131 3 110 16 153 51 169 12 6 29 24 37 40 9 16 24 32 34 35 10 4 32 23 48 43 35 45 68 78 122 121 41 32 66 40 77 23 3 -5 20 -13 37 -17 18 -3 40 -11 50 -17 12 -8 23 -8 41 2 39 21 60 10 77 -37 13 -38 13 -46 0 -70 -14 -25 -22 -28 -108 -36 -98 -10 -124 -25 -44 -27 26 -1 80 -3 120 -5 39 -2 72 0 72 4 0 4 1 58 3 120 l2 112 -101 0 c-68 0 -114 5 -137 15 -42 17 -77 20 -77 5z"/> <path d="M3204 4586 c-132 -132 -147 -141 -178 -110 -13 12 -28 14 -70 9 -47 -6 -57 -4 -75 14 -25 25 -28 77 -7 107 13 19 26 21 112 22 93 0 123 9 110 31 -9 15 -292 15 -301 1 -4 -6 -1 -18 6 -26 11 -14 14 -85 6 -173 l-2 -23 152 -2 152 -1 28 34 c15 19 63 70 106 112 42 42 77 82 77 88 0 25 -30 4 -116 -83z"/> <path d="M6356 4433 c-10 -3 -48 -20 -84 -39 -76 -40 -89 -41 -142 -14 -72 37 -134 21 -185 -47 -16 -21 -36 -43 -44 -49 -9 -7 -12 -21 -9 -39 3 -16 -2 -45 -12 -69 -10 -22 -22 -58 -25 -79 -4 -21 -14 -41 -21 -44 -23 -9 -46 18 -41 46 4 17 -3 35 -19 54 -14 17 -24 41 -24 60 0 41 -33 108 -73 147 -42 41 -93 56 -148 42 -33 -8 -57 -7 -110 5 l-68 15 -48 -31 c-35 -23 -58 -49 -82 -91 -18 -34 -39 -60 -48 -60 -13 0 -13 -2 -2 -16 11 -14 11 -18 -4 -28 -12 -10 -15 -22 -10 -50 4 -28 3 -35 -8 -31 -33 12 -42 -11 -44 -121 -1 -60 -8 -122 -14 -137 -14 -37 -14 -130 1 -145 10 -10 15 -71 17 -229 1 -39 3 -43 25 -43 32 0 39 -12 44 -79 3 -47 9 -62 41 -96 21 -23 42 -40 48 -38 6 2 25 -10 43 -27 19 -18 41 -29 50 -27 10 2 24 0 33 -5 12 -6 27 1 57 28 39 35 53 74 28 74 -8 1 -6 6 5 14 9 7 17 17 17 23 0 5 -18 55 -41 112 -34 84 -39 104 -28 117 10 13 10 17 -1 24 -17 11 -25 97 -10 115 7 9 6 21 -5 41 -8 16 -15 37 -15 47 0 9 -5 17 -11 17 -16 0 -2 130 15 150 8 8 17 34 21 57 6 36 29 74 38 62 2 -2 16 -43 31 -91 22 -69 28 -109 30 -194 3 -104 4 -108 31 -130 20 -15 26 -28 22 -43 -2 -11 1 -28 9 -38 7 -10 14 -34 14 -54 0 -23 7 -42 20 -54 10 -9 26 -39 35 -66 9 -27 20 -49 24 -49 5 0 20 -11 33 -25 17 -17 45 -29 82 -36 53 -9 60 -8 109 18 47 25 52 32 55 65 2 23 11 43 22 51 10 7 20 26 22 42 2 23 9 31 35 37 18 5 38 18 44 29 11 21 11 21 25 -6 8 -15 14 -34 14 -42 0 -50 106 -164 170 -183 25 -8 50 -17 56 -22 6 -5 48 -11 92 -15 73 -5 81 -4 91 14 7 13 24 22 51 26 36 5 54 13 106 52 7 5 17 6 21 2 4 -5 1 -12 -7 -17 -12 -8 -12 -11 2 -27 8 -10 19 -29 23 -43 4 -14 18 -36 31 -49 13 -13 24 -31 24 -39 0 -13 2 -13 18 0 9 9 23 13 30 11 21 -8 70 17 117 61 54 49 77 90 69 121 -4 16 1 28 19 42 27 21 77 130 77 167 0 11 2 59 5 106 3 47 6 137 6 202 0 108 -2 120 -30 180 -18 39 -28 74 -24 86 3 12 -3 32 -15 49 -11 15 -28 52 -38 82 -15 43 -29 61 -74 96 -67 51 -84 57 -135 45 -27 -6 -50 -21 -72 -47 -30 -36 -32 -37 -51 -20 -10 9 -52 33 -93 53 -67 33 -80 36 -131 30 -33 -3 -60 -2 -63 4 -6 10 -9 11 -39 3z m-918 -88 c6 -6 -9 -44 -22 -57 -18 -20 -56 -96 -56 -116 0 -9 -7 -26 -15 -36 -8 -11 -15 -32 -15 -47 0 -14 -7 -44 -16 -64 -23 -55 -23 -404 0 -459 9 -21 16 -51 16 -65 0 -15 7 -36 15 -47 8 -10 15 -27 15 -37 0 -16 46 -109 82 -166 18 -29 7 -34 -54 -26 -46 6 -56 11 -65 33 -7 15 -21 43 -32 62 -26 47 -51 101 -51 113 0 5 -7 23 -14 40 -33 71 -59 259 -51 372 6 89 30 204 51 252 8 17 14 37 14 45 0 7 22 56 49 108 41 81 52 96 77 101 25 6 62 2 72 -6z m1405 5 c22 0 31 -7 43 -32 13 -31 20 -44 44 -85 6 -10 13 -25 16 -33 3 -8 11 -28 18 -45 25 -59 47 -136 58 -202 22 -136 8 -362 -28 -440 -8 -17 -14 -37 -14 -45 0 -19 -92 -200 -115 -225 -15 -16 -30 -21 -60 -20 -46 2 -58 26 -29 58 18 20 39 53 49 79 4 8 13 27 21 42 8 14 14 34 14 45 0 10 7 27 15 37 8 11 15 37 15 59 0 21 5 48 12 60 15 28 14 331 -1 370 -6 16 -11 43 -11 60 0 18 -7 45 -15 61 -8 15 -15 36 -15 45 0 9 -6 25 -14 36 -7 11 -16 32 -20 48 -3 15 -11 27 -16 27 -6 0 -10 7 -10 15 0 8 -9 23 -20 32 -34 29 -24 69 15 59 11 -3 33 -6 48 -6z m-1205 -44 c11 -29 21 -79 53 -245 5 -29 14 -62 19 -72 6 -10 10 -35 10 -56 1 -21 7 -49 15 -63 8 -14 14 -42 15 -63 0 -21 5 -48 12 -60 7 -12 15 -49 19 -82 14 -121 21 -146 38 -143 10 2 17 15 18 38 3 33 17 106 43 225 6 28 15 73 19 100 4 28 12 60 19 72 7 12 12 39 12 60 1 21 7 49 15 63 8 14 14 41 15 61 0 20 7 50 15 65 8 16 15 48 15 71 0 51 13 60 88 62 63 1 64 -3 28 -123 -37 -129 -47 -168 -55 -221 -4 -27 -12 -60 -19 -72 -7 -12 -12 -35 -12 -51 0 -16 -7 -43 -15 -58 -8 -16 -15 -45 -15 -64 0 -19 -7 -44 -15 -54 -8 -11 -15 -33 -15 -49 0 -16 -7 -52 -16 -81 -29 -91 -34 -111 -40 -161 -4 -28 -12 -53 -18 -57 -6 -4 -39 -8 -72 -8 -55 0 -64 3 -78 25 -9 13 -16 41 -16 62 -1 21 -7 49 -15 63 -8 14 -14 36 -15 49 0 13 -7 49 -16 80 -47 167 -62 229 -74 293 -5 26 -13 56 -19 67 -6 11 -11 35 -11 53 0 18 -7 46 -15 62 -8 15 -15 43 -15 60 0 17 -6 41 -14 52 -8 11 -17 45 -21 76 l-7 56 64 0 c64 0 65 -1 76 -32z m909 17 c42 -20 103 -71 103 -86 0 -6 7 -18 15 -27 9 -10 16 -41 17 -81 l3 -64 -60 0 -60 0 -5 45 c-6 57 -33 97 -78 115 -106 45 -182 -28 -165 -160 5 -42 13 -56 55 -97 27 -26 55 -48 62 -48 7 0 35 -12 62 -26 157 -83 201 -139 211 -268 6 -77 -32 -175 -86 -222 -61 -53 -106 -67 -206 -62 -70 3 -99 8 -113 21 -10 9 -21 17 -25 17 -12 0 -77 70 -77 83 0 7 -6 21 -14 32 -8 11 -15 40 -16 65 -5 80 -6 78 60 77 l60 0 0 -36 c1 -128 130 -203 228 -131 34 24 42 36 48 75 9 66 0 138 -22 168 -10 15 -62 48 -114 74 -113 57 -172 101 -208 157 -24 38 -26 50 -26 146 0 87 3 110 19 135 25 39 61 71 105 95 47 26 174 27 227 3z m224 -283 c5 0 9 -19 9 -43 0 -23 7 -53 16 -66 13 -19 16 -38 11 -98 -3 -41 -8 -77 -11 -80 -14 -14 -36 11 -53 56 -11 33 -23 51 -34 51 -24 0 -52 36 -45 58 5 16 0 22 -25 31 -18 6 -41 11 -51 11 -31 0 -15 24 23 33 92 23 110 29 116 43 3 8 12 13 20 10 8 -3 19 -6 24 -6z m-590 -200 c24 -11 54 -30 66 -43 l22 -23 -34 -13 c-18 -6 -39 -18 -46 -27 -10 -13 -9 -16 9 -21 32 -8 27 -23 -8 -23 -31 0 -80 -40 -80 -65 0 -21 -17 -18 -30 4 -16 31 -12 48 13 55 l22 7 -22 9 c-13 5 -23 13 -23 17 0 23 22 83 30 83 6 0 10 11 10 24 0 13 6 27 13 29 6 3 13 6 13 6 1 1 21 -8 45 -19z m144 -110 c3 -5 12 -10 19 -10 7 0 30 -16 50 -35 21 -19 42 -35 47 -35 6 0 9 -10 7 -22 -5 -38 -44 -35 -84 7 -18 20 -38 34 -44 30 -6 -4 -7 5 -4 25 7 32 -10 42 -34 18 -7 -7 -12 -8 -12 -2 0 26 42 44 55 24z"/> <path d="M3242 3861 c-10 -6 -11 -45 -6 -167 5 -140 4 -161 -10 -173 -9 -7 -16 -18 -16 -23 0 -17 -63 -88 -84 -94 -12 -4 -26 -11 -33 -16 -7 -5 -166 -9 -387 -9 -308 1 -376 -2 -376 -13 0 -9 18 -15 53 -20 88 -10 695 -7 702 4 3 6 14 10 24 10 20 0 101 59 101 74 0 5 8 19 19 30 28 32 41 103 41 231 l0 115 28 11 c40 16 172 13 189 -4 4 -4 8 -74 9 -155 1 -100 6 -157 15 -177 18 -39 59 -85 76 -85 7 0 13 -4 13 -8 0 -13 73 -42 87 -34 9 5 1 14 -25 27 -51 27 -102 68 -102 82 0 6 -8 19 -17 29 -16 16 -18 36 -15 190 4 173 -1 200 -32 175 -12 -10 -216 -8 -234 2 -4 3 -14 2 -20 -2z"/> </g> </svg> 