<?xml version="1.0" standalone="no"?>
<!DOCTYPE svg PUBLIC "-//W3C//DTD SVG 20010904//EN"
 "http://www.w3.org/TR/2001/REC-SVG-20010904/DTD/svg10.dtd">
<svg version="1.0" xmlns="http://www.w3.org/2000/svg"
 width="300.000000pt" height="200.000000pt" viewBox="0 0 300.000000 200.000000"
 preserveAspectRatio="xMidYMid meet">
<metadata>
Created by potrace 1.10, written by Peter Selinger 2001-2011
</metadata>
<g transform="translate(0.000000,200.000000) scale(0.100000,-0.100000)"
fill="#000000" stroke="none">
<path d="M146 1364 c-13 -12 -16 -40 -16 -144 0 -127 1 -130 25 -146 16 -11
40 -15 70 -12 l45 3 0 -47 0 -48 -53 0 c-82 0 -87 -10 -87 -162 0 -163 -5
-158 162 -158 150 0 158 5 158 93 l0 57 65 0 65 0 0 -58 c0 -87 8 -92 162 -92
163 0 158 -5 158 162 0 155 -2 158 -111 158 l-74 0 3 121 c2 82 -1 125 -9 135
-8 10 -35 14 -96 14 -70 0 -90 4 -114 21 l-29 20 0 -25 c0 -14 -4 -26 -10 -26
-5 0 -10 -7 -10 -15 0 -8 5 -15 10 -15 6 0 10 -11 10 -25 l0 -26 37 26 c29 19
50 25 92 25 l55 0 -120 -115 -119 -114 -52 -1 -53 0 0 45 0 45 50 0 c66 0 90
23 90 86 0 40 -2 44 -15 30 -8 -8 -15 -26 -15 -41 0 -27 -29 -45 -76 -45 -13
0 -24 -4 -24 -10 0 -5 -11 -10 -24 -10 -14 0 -28 5 -31 10 -3 6 -21 10 -39 10
-60 0 -67 14 -70 129 -3 133 1 138 109 139 44 0 96 -2 115 -6 31 -7 35 -12 42
-52 12 -69 28 -73 28 -8 0 85 -6 88 -160 88 -104 0 -132 -3 -144 -16z m524
-156 c0 -10 2 -10 9 0 6 10 10 9 14 -7 3 -12 1 -24 -4 -27 -5 -3 -9 -50 -9
-105 l0 -99 -32 0 c-48 0 -68 -24 -68 -82 l0 -48 -64 0 -64 0 -4 50 -3 50 77
77 c71 71 78 75 93 59 18 -18 31 -20 39 -7 3 5 -5 12 -19 15 -32 8 -31 16 5
51 16 15 26 33 22 39 -11 18 -12 46 -2 46 6 0 10 -6 10 -12z m-298 -256 l56
-4 6 -56 c3 -32 6 -61 6 -67 3 -23 -20 -129 -30 -139 -7 -7 -56 -11 -120 -11
-138 0 -139 1 -140 133 0 102 9 132 43 133 12 0 38 6 57 13 19 8 42 11 50 8 8
-3 40 -8 72 -10z m343 -2 c3 -5 33 -10 65 -10 84 0 90 -9 90 -130 0 -129 -1
-130 -126 -130 -117 0 -134 8 -134 60 0 21 -5 51 -12 65 -9 19 -9 28 0 37 7 7
12 27 12 45 0 30 5 36 43 53 50 22 54 23 62 10z"/>
<path d="M597 1362 c-19 -20 -23 -97 -7 -107 6 -3 11 2 11 12 7 92 9 93 145
93 134 0 128 8 127 -149 -1 -116 -4 -120 -68 -122 -46 -1 -83 -13 -69 -22 6
-3 38 -5 73 -4 87 3 91 10 91 162 0 159 5 155 -162 155 -108 0 -127 -2 -141
-18z"/>
<path d="M1030 1362 c0 -4 16 -64 37 -134 33 -112 40 -128 59 -128 18 0 25 15
54 113 18 61 38 120 42 130 8 16 6 18 -13 15 -20 -3 -27 -16 -51 -107 -15 -57
-29 -105 -31 -107 -2 -3 -17 45 -33 105 -21 82 -33 111 -46 114 -10 3 -18 2
-18 -1z"/>
<path d="M1985 1345 c-44 -43 -27 -96 39 -125 47 -20 70 -48 60 -74 -13 -34
-78 -31 -89 5 -8 25 -35 25 -35 0 0 -27 46 -61 82 -61 17 0 39 10 53 25 46 45
26 101 -50 134 -39 17 -45 24 -45 50 0 24 5 32 25 37 27 7 55 -10 55 -32 0 -8
7 -14 15 -14 16 0 20 27 7 46 -11 16 -48 34 -72 34 -11 0 -32 -11 -45 -25z"/>
<path d="M2740 1235 c0 -113 2 -135 15 -135 12 0 15 15 15 73 0 75 9 97 42 97
27 0 38 -32 38 -109 0 -58 3 -69 15 -65 12 5 15 24 15 85 0 66 -3 82 -20 99
-24 24 -47 25 -72 3 -17 -15 -18 -14 -18 35 0 40 -4 52 -15 52 -13 0 -15 -22
-15 -135z"/>
<path d="M1590 1320 c0 -20 -5 -30 -15 -30 -8 0 -15 -4 -15 -10 0 -5 7 -10 15
-10 12 0 15 -16 15 -80 0 -70 2 -81 21 -90 22 -12 49 -7 49 9 0 5 -9 11 -20
14 -18 5 -20 14 -20 77 0 60 3 71 15 66 9 -3 15 0 15 9 0 8 -7 15 -15 15 -10
0 -15 10 -15 30 0 20 -5 30 -15 30 -10 0 -15 -10 -15 -30z"/>
<path d="M1257 1280 c-31 -25 -43 -85 -27 -135 19 -57 67 -71 114 -34 14 11
26 25 26 30 0 15 -37 10 -44 -6 -13 -35 -66 -9 -66 32 0 21 4 22 55 20 l55 -3
0 34 c0 37 -37 82 -68 82 -11 0 -31 -9 -45 -20z m73 -29 c17 -33 11 -41 -30
-41 -32 0 -40 4 -40 18 0 41 51 57 70 23z"/>
<path d="M1425 1275 c-21 -20 -25 -34 -25 -80 0 -46 4 -60 25 -80 13 -14 35
-25 48 -25 26 0 67 33 67 55 0 22 -23 18 -38 -5 -16 -25 -48 -26 -62 -1 -5 11
-10 36 -10 56 0 20 5 45 10 56 14 25 46 24 62 -1 15 -23 38 -27 38 -6 0 19
-48 56 -72 56 -10 0 -30 -11 -43 -25z"/>
<path d="M1707 1280 c-32 -26 -44 -79 -28 -131 19 -62 73 -78 116 -34 21 20
25 34 25 80 0 46 -4 60 -25 80 -29 30 -54 31 -88 5z m73 -29 c5 -11 10 -36 10
-56 0 -67 -38 -98 -71 -58 -17 20 -17 97 1 118 17 21 47 19 60 -4z"/>
<path d="M1896 1284 c-9 -8 -16 -11 -16 -5 0 6 -7 11 -15 11 -12 0 -15 -17
-15 -95 0 -57 4 -95 10 -95 6 0 13 0 17 0 4 0 5 25 4 55 -3 70 5 94 35 105 26
10 33 40 10 40 -8 0 -22 -7 -30 -16z"/>
<path d="M2175 1277 c-23 -19 -26 -30 -26 -82 0 -52 3 -63 26 -82 34 -30 66
-29 95 2 25 27 20 47 -8 27 -45 -32 -75 -24 -80 21 -3 26 -2 26 52 24 l56 -3
0 34 c0 38 -37 82 -69 82 -11 0 -32 -10 -46 -23z m75 -26 c17 -33 11 -41 -30
-41 -32 0 -40 4 -40 18 0 41 51 57 70 23z"/>
<path d="M2342 1284 c-12 -8 -22 -22 -22 -30 0 -19 26 -18 34 1 8 21 43 19 56
-4 17 -33 11 -41 -30 -41 -47 0 -76 -33 -66 -75 8 -33 50 -53 76 -38 10 7 28
9 40 6 21 -6 22 -5 16 78 -4 70 -9 87 -27 102 -26 21 -48 22 -77 1z m72 -121
c-8 -36 -18 -46 -39 -41 -52 10 -37 68 16 68 27 0 29 -2 23 -27z"/>
<path d="M2526 1285 c-9 -9 -16 -12 -16 -6 0 6 -7 11 -15 11 -22 0 -22 -185 0
-193 11 -5 15 8 17 71 3 70 5 77 28 89 26 13 33 34 14 40 -7 2 -19 -3 -28 -12z"/>
<path d="M2605 1275 c-21 -20 -25 -34 -25 -80 0 -46 4 -60 25 -80 13 -14 35
-25 49 -25 26 0 66 34 66 57 0 20 -24 16 -38 -7 -16 -25 -48 -26 -62 -1 -5 11
-10 36 -10 56 0 20 5 45 10 56 14 25 46 24 62 -1 15 -23 38 -27 38 -6 0 19
-48 56 -72 56 -10 0 -30 -11 -43 -25z"/>
<path d="M1106 975 c-27 -27 -49 -122 -44 -190 6 -66 40 -145 63 -145 11 0 10
9 -7 47 -31 71 -35 155 -9 232 24 68 23 81 -3 56z"/>
<path d="M1540 984 c0 -2 9 -33 21 -67 25 -73 22 -170 -6 -229 -20 -41 -15
-59 10 -38 21 18 45 105 45 166 0 60 -33 159 -55 168 -8 3 -15 3 -15 0z"/>
<path d="M1191 843 c21 -71 39 -132 39 -136 0 -5 10 -7 22 -5 18 3 27 22 59
133 21 72 39 131 39 133 0 1 -8 2 -18 2 -14 0 -23 -22 -47 -115 -16 -62 -31
-113 -33 -111 -1 2 -14 46 -28 97 -35 132 -33 129 -53 129 -17 0 -15 -12 20
-127z"/>
<path d="M1392 954 c-14 -10 -22 -25 -22 -45 0 -44 15 -65 58 -82 62 -25 80
-65 41 -90 -21 -13 -69 -1 -69 18 0 8 -9 15 -20 15 -27 0 -25 -16 5 -45 47
-48 135 -22 135 41 0 40 -18 64 -65 85 -52 23 -59 32 -51 65 8 32 65 35 73 4
3 -11 14 -20 24 -20 24 0 24 11 -2 44 -24 30 -72 35 -107 10z"/>
</g>
</svg>
